<mxfile host="app.diagrams.net" modified="2020-09-09T11:02:33.669Z" agent="5.0 (Windows NT 10.0; Win64; x64) AppleWebKit/537.36 (KHTML, like Gecko) Chrome/85.0.4183.83 Safari/537.36" etag="AU36FGKwLHWlv37uvlKS" version="13.6.9" type="github">
  <diagram id="R2lEEEUBdFMjLlhIrx00" name="Page-1">
    <mxGraphModel dx="1038" dy="580" grid="1" gridSize="10" guides="1" tooltips="1" connect="1" arrows="1" fold="1" page="1" pageScale="1" pageWidth="850" pageHeight="1100" math="0" shadow="0" extFonts="Permanent Marker^https://fonts.googleapis.com/css?family=Permanent+Marker">
      <root>
        <mxCell id="0" />
        <mxCell id="1" parent="0" />
        <mxCell id="DeyAXq_4FY51z4i4DMjX-8" value="" style="edgeStyle=orthogonalEdgeStyle;rounded=0;orthogonalLoop=1;jettySize=auto;html=1;" edge="1" parent="1" source="DeyAXq_4FY51z4i4DMjX-1" target="DeyAXq_4FY51z4i4DMjX-4">
          <mxGeometry relative="1" as="geometry" />
        </mxCell>
        <mxCell id="DeyAXq_4FY51z4i4DMjX-9" value="" style="edgeStyle=orthogonalEdgeStyle;rounded=0;orthogonalLoop=1;jettySize=auto;html=1;" edge="1" parent="1" source="DeyAXq_4FY51z4i4DMjX-1" target="DeyAXq_4FY51z4i4DMjX-4">
          <mxGeometry relative="1" as="geometry" />
        </mxCell>
        <mxCell id="DeyAXq_4FY51z4i4DMjX-11" style="edgeStyle=orthogonalEdgeStyle;rounded=0;orthogonalLoop=1;jettySize=auto;html=1;exitX=1;exitY=0.5;exitDx=0;exitDy=0;entryX=0;entryY=0.5;entryDx=0;entryDy=0;" edge="1" parent="1" source="DeyAXq_4FY51z4i4DMjX-1" target="DeyAXq_4FY51z4i4DMjX-2">
          <mxGeometry relative="1" as="geometry" />
        </mxCell>
        <mxCell id="DeyAXq_4FY51z4i4DMjX-12" style="edgeStyle=orthogonalEdgeStyle;rounded=0;orthogonalLoop=1;jettySize=auto;html=1;entryX=0;entryY=0.5;entryDx=0;entryDy=0;" edge="1" parent="1" source="DeyAXq_4FY51z4i4DMjX-1" target="DeyAXq_4FY51z4i4DMjX-3">
          <mxGeometry relative="1" as="geometry" />
        </mxCell>
        <mxCell id="DeyAXq_4FY51z4i4DMjX-13" style="edgeStyle=orthogonalEdgeStyle;rounded=0;orthogonalLoop=1;jettySize=auto;html=1;entryX=0;entryY=0.5;entryDx=0;entryDy=0;" edge="1" parent="1" source="DeyAXq_4FY51z4i4DMjX-1" target="DeyAXq_4FY51z4i4DMjX-5">
          <mxGeometry relative="1" as="geometry" />
        </mxCell>
        <mxCell id="DeyAXq_4FY51z4i4DMjX-1" value="student" style="whiteSpace=wrap;html=1;align=center;" vertex="1" parent="1">
          <mxGeometry x="340" y="100" width="100" height="40" as="geometry" />
        </mxCell>
        <mxCell id="DeyAXq_4FY51z4i4DMjX-2" value="&lt;span style=&quot;border-bottom: 1px dotted&quot;&gt;Name&lt;/span&gt;" style="ellipse;whiteSpace=wrap;html=1;align=center;" vertex="1" parent="1">
          <mxGeometry x="540" y="50" width="110" height="40" as="geometry" />
        </mxCell>
        <mxCell id="DeyAXq_4FY51z4i4DMjX-3" value="&lt;span style=&quot;border-bottom: 1px dotted&quot;&gt;student id&lt;/span&gt;" style="ellipse;whiteSpace=wrap;html=1;align=center;" vertex="1" parent="1">
          <mxGeometry x="540" y="100" width="110" height="40" as="geometry" />
        </mxCell>
        <mxCell id="DeyAXq_4FY51z4i4DMjX-4" value="&lt;span style=&quot;border-bottom: 1px dotted&quot;&gt;date of birth&lt;/span&gt;" style="ellipse;whiteSpace=wrap;html=1;align=center;" vertex="1" parent="1">
          <mxGeometry x="540" y="140" width="110" height="40" as="geometry" />
        </mxCell>
        <mxCell id="DeyAXq_4FY51z4i4DMjX-5" value="&lt;span style=&quot;border-bottom: 1px dotted&quot;&gt;enrolled year&lt;/span&gt;" style="ellipse;whiteSpace=wrap;html=1;align=center;" vertex="1" parent="1">
          <mxGeometry x="540" y="190" width="100" height="40" as="geometry" />
        </mxCell>
        <mxCell id="DeyAXq_4FY51z4i4DMjX-15" value="" style="edgeStyle=orthogonalEdgeStyle;rounded=0;orthogonalLoop=1;jettySize=auto;html=1;" edge="1" parent="1" source="DeyAXq_4FY51z4i4DMjX-20" target="DeyAXq_4FY51z4i4DMjX-23">
          <mxGeometry relative="1" as="geometry" />
        </mxCell>
        <mxCell id="DeyAXq_4FY51z4i4DMjX-16" value="" style="edgeStyle=orthogonalEdgeStyle;rounded=0;orthogonalLoop=1;jettySize=auto;html=1;" edge="1" parent="1" source="DeyAXq_4FY51z4i4DMjX-20" target="DeyAXq_4FY51z4i4DMjX-23">
          <mxGeometry relative="1" as="geometry" />
        </mxCell>
        <mxCell id="DeyAXq_4FY51z4i4DMjX-17" style="edgeStyle=orthogonalEdgeStyle;rounded=0;orthogonalLoop=1;jettySize=auto;html=1;exitX=1;exitY=0.5;exitDx=0;exitDy=0;entryX=0;entryY=0.5;entryDx=0;entryDy=0;" edge="1" parent="1" source="DeyAXq_4FY51z4i4DMjX-20" target="DeyAXq_4FY51z4i4DMjX-21">
          <mxGeometry relative="1" as="geometry" />
        </mxCell>
        <mxCell id="DeyAXq_4FY51z4i4DMjX-18" style="edgeStyle=orthogonalEdgeStyle;rounded=0;orthogonalLoop=1;jettySize=auto;html=1;entryX=0;entryY=0.5;entryDx=0;entryDy=0;" edge="1" parent="1" source="DeyAXq_4FY51z4i4DMjX-20" target="DeyAXq_4FY51z4i4DMjX-22">
          <mxGeometry relative="1" as="geometry" />
        </mxCell>
        <mxCell id="DeyAXq_4FY51z4i4DMjX-19" style="edgeStyle=orthogonalEdgeStyle;rounded=0;orthogonalLoop=1;jettySize=auto;html=1;entryX=0;entryY=0.5;entryDx=0;entryDy=0;" edge="1" parent="1" source="DeyAXq_4FY51z4i4DMjX-20" target="DeyAXq_4FY51z4i4DMjX-24">
          <mxGeometry relative="1" as="geometry" />
        </mxCell>
        <mxCell id="DeyAXq_4FY51z4i4DMjX-20" value="program" style="whiteSpace=wrap;html=1;align=center;" vertex="1" parent="1">
          <mxGeometry x="330" y="310" width="100" height="40" as="geometry" />
        </mxCell>
        <mxCell id="DeyAXq_4FY51z4i4DMjX-21" value="&lt;span style=&quot;border-bottom: 1px dotted&quot;&gt;Name&lt;/span&gt;" style="ellipse;whiteSpace=wrap;html=1;align=center;" vertex="1" parent="1">
          <mxGeometry x="530" y="260" width="110" height="40" as="geometry" />
        </mxCell>
        <mxCell id="DeyAXq_4FY51z4i4DMjX-22" value="&lt;span style=&quot;border-bottom: 1px dotted&quot;&gt;program identifier&lt;/span&gt;" style="ellipse;whiteSpace=wrap;html=1;align=center;" vertex="1" parent="1">
          <mxGeometry x="530" y="310" width="110" height="40" as="geometry" />
        </mxCell>
        <mxCell id="DeyAXq_4FY51z4i4DMjX-23" value="Total credits required" style="ellipse;whiteSpace=wrap;html=1;align=center;" vertex="1" parent="1">
          <mxGeometry x="530" y="350" width="110" height="40" as="geometry" />
        </mxCell>
        <mxCell id="DeyAXq_4FY51z4i4DMjX-24" value="&lt;span style=&quot;border-bottom: 1px dotted&quot;&gt;Year commenced&lt;/span&gt;" style="ellipse;whiteSpace=wrap;html=1;align=center;" vertex="1" parent="1">
          <mxGeometry x="530" y="400" width="100" height="40" as="geometry" />
        </mxCell>
      </root>
    </mxGraphModel>
  </diagram>
</mxfile>
